<?xml version="1.0" encoding="iso-8859-1"?>
<!-- Generator: Adobe Illustrator 19.0.0, SVG Export Plug-In . SVG Version: 6.00 Build 0)  -->
<svg version="1.1" id="Layer_1" xmlns="http://www.w3.org/2000/svg" xmlns:xlink="http://www.w3.org/1999/xlink" x="0px" y="0px"
	 viewBox="0 0 512 512" style="enable-background:new 0 0 512 512;" xml:space="preserve">
<g>
	<g>
		<path d="M416,160C416,71.776,344.224,0,256,0S96,71.776,96,160c0,84.619,66.133,153.931,149.333,159.456V416H192
			c-5.891,0-10.667,4.776-10.667,10.667s4.776,10.667,10.667,10.667h53.333v64c0,5.891,4.776,10.667,10.667,10.667
			c5.891,0,10.667-4.776,10.667-10.667v-64H320c5.891,0,10.667-4.776,10.667-10.667S325.891,416,320,416h-53.333v-96.544
			C349.867,313.931,416,244.619,416,160z M256,298.667C179.451,298.584,117.416,236.549,117.333,160
			c0-76.583,62.083-138.667,138.667-138.667S394.667,83.417,394.667,160S332.583,298.667,256,298.667z"/>
	</g>
</g>
<g>
</g>
<g>
</g>
<g>
</g>
<g>
</g>
<g>
</g>
<g>
</g>
<g>
</g>
<g>
</g>
<g>
</g>
<g>
</g>
<g>
</g>
<g>
</g>
<g>
</g>
<g>
</g>
<g>
</g>
</svg>
