<?xml version="1.0" encoding="iso-8859-1"?>
<!-- Generator: Adobe Illustrator 19.0.0, SVG Export Plug-In . SVG Version: 6.00 Build 0)  -->
<svg version="1.1" id="Capa_1" xmlns="http://www.w3.org/2000/svg" xmlns:xlink="http://www.w3.org/1999/xlink" x="0px" y="0px"
	 viewBox="0 0 512 512" style="enable-background:new 0 0 512 512;" xml:space="preserve">
<path style="fill:#880082;" d="M0,384c0,31.417,25.472,56.889,56.889,56.889h398.222C486.528,440.889,512,415.417,512,384v-5.02H0
	V384z"/>
<polygon style="fill:#3558A0;" points="0,376.889 0,378.98 512,378.98 512,376.889 512,317.909 0,317.909 "/>
<polygon style="fill:#138F3E;" points="0,313.884 0,317.909 512,317.909 512,313.884 512,256 0,256 "/>
<polygon style="fill:#FAD220;" points="0,253.582 0,256 512,256 512,253.582 512,194.092 0,194.092 "/>
<polygon style="fill:#FF5000;" points="0,192 0,194.092 512,194.092 512,192 512,133.02 0,133.02 "/>
<path style="fill:#FF000E;" d="M455.111,71.111H56.889C25.472,71.111,0,96.583,0,128v2.418v2.602h512v-2.602V128
	C512,96.583,486.528,71.111,455.111,71.111z"/>
<g>
</g>
<g>
</g>
<g>
</g>
<g>
</g>
<g>
</g>
<g>
</g>
<g>
</g>
<g>
</g>
<g>
</g>
<g>
</g>
<g>
</g>
<g>
</g>
<g>
</g>
<g>
</g>
<g>
</g>
</svg>
