<svg height="512pt" viewBox="0 0 512 512.03718" width="512pt" xmlns="http://www.w3.org/2000/svg"><path d="m192.019531 512.039062c-105.855469 0-191.9999998-86.144531-191.9999998-192 0-105.859374 86.1445308-192 191.9999998-192s192 86.140626 192 192c0 105.855469-86.144531 192-192 192zm0-362.667968c-94.101562 0-170.667969 76.566406-170.667969 170.667968 0 94.097657 76.566407 170.664063 170.667969 170.664063 94.101563 0 170.664063-76.566406 170.664063-170.664063 0-94.101562-76.5625-170.667968-170.664063-170.667968zm0 0"/><path d="m320.019531 202.703125c-2.730469 0-5.460937-1.042969-7.554687-3.113281-4.160156-4.160156-4.160156-10.921875 0-15.082032l163.136718-163.136718h-123.582031c-5.890625 0-10.667969-4.777344-10.667969-10.667969 0-5.886719 4.777344-10.6640625 10.667969-10.6640625h149.269531c.253907-.0859375.554688 0 .832032.0195313 2.152344.1484372 4.117187.9375002 5.738281 2.1757812.574219.449219 1.109375.9375 1.578125 1.492187 1.578125 1.855469 2.558594 4.246094 2.582031 6.847657v.042969 149.421874c0 5.886719-4.78125 10.664063-10.667969 10.664063-5.886718 0-10.667968-4.777344-10.667968-10.664063v-123.585937l-163.113282 163.113281c-2.089843 2.09375-4.820312 3.136719-7.550781 3.136719zm0 0"/></svg>