<svg height="480pt" viewBox="0 0 480 480.00003" width="480pt" xmlns="http://www.w3.org/2000/svg"><path d="m463.792969 241.40625c-.167969-7.234375-.703125-14.457031-1.601563-21.636719-5.558594-43.503906-21.472656-85.039062-46.398437-121.121093-13.765625-20.003907-30.394531-37.878907-49.351563-53.046876-35.667968-29.257812-80.3125-45.359374-126.441406-45.601562-9.582031-.00390625-19.152344.691406-28.632812 2.078125-35.199219 5.371094-68.367188 19.910156-96.167969 42.160156-5.269531 4.144531-10.421875 8.570313-15.464844 13.273438-16.351563 15.339843-30.644531 32.738281-42.519531 51.761719-2.132813 3.421874-4.191406 6.890624-6.175782 10.398437-13.882812 24.59375-23.910156 51.167969-29.734374 78.800781-2.976563 14.125-4.6875 28.484375-5.121094 42.910156-9.65625 3.328126-16.152344 12.402344-16.183594 22.617188v8c0 13.253906 10.746094 24 24 24h8.375c3.808594 76.289062 61.441406 143.433594 143.625 166.929688v9.070312c0 4.417969 3.582031 8 8 8h112c4.417969 0 8-3.582031 8-8v-9.070312c82.183594-23.496094 139.816406-90.640626 143.625-166.929688h8.375c13.253906 0 24-10.746094 24-24v-8c-.03125-10.214844-6.539062-19.289062-16.207031-22.59375zm-72.25-89.167969c-3.761719-4.707031-6.347657-10.25-7.542969-16.160156.273438-2.316406 6.34375-10.34375 22.878906-21.742187.800782 1.222656 1.601563 2.398437 2.402344 3.671874 1.03125 1.65625 2.046875 3.3125 3.046875 4.992188 1.542969 2.625 3.03125 5.289062 4.488281 8 .871094 1.601562 1.757813 3.199219 2.597656 4.800781 1.601563 3.078125 3.097657 6.207031 4.570313 9.351563.589844 1.253906 1.230469 2.503906 1.800781 3.777344 2.007813 4.460937 3.902344 8.972656 5.648438 13.535156.183594.464844.328125.933594.503906 1.398437 1.546875 4.085938 2.984375 8.199219 4.320312 12.34375.445313 1.417969.796876 2.839844 1.269532 4.257813.96875 3.199218 1.90625 6.445312 2.746094 9.679687.429687 1.671875.796874 3.351563 1.214843 5.023438.71875 3.007812 1.378907 6.019531 1.976563 9.039062.351562 1.769531.6875 3.546875.992187 5.320313.214844 1.25.375 2.488281.574219 3.738281-11.320312.664063-22.667969-.828125-33.429688-4.402344-16.699218-8.34375-16.609374-12.886719-12.417968-21.261719 6.578125-13.203124-1.304688-25.496093-7.640625-35.363281zm-136.558594-135.582031c1.648437.136719 3.289063.40625 4.925781.589844 3.304688.371094 6.601563.746094 9.875 1.296875 1.949219.335937 3.878906.800781 5.816406 1.183593 2.933594.601563 5.871094 1.195313 8.796876 1.945313 2.042968.519531 4.050781 1.144531 6.066406 1.734375 2.773437.800781 5.542968 1.648438 8.277344 2.601562 2.050781.710938 4.066406 1.496094 6.089843 2.28125 2.671875 1.03125 5.328125 2.101563 7.960938 3.261719 2.007812.890625 4 1.832031 5.992187 2.792969 2.589844 1.257812 5.164063 2.578125 7.71875 3.953125 1.953125 1.066406 3.894532 2.15625 5.824219 3.269531 2.527344 1.480469 5.023437 3.050782 7.511719 4.664063 1.871094 1.210937 3.746094 2.402343 5.601562 3.722656.796875.558594 1.597656 1.183594 2.398438 1.757813-10.441406 7.488281-19.839844 15.792968-19.839844 28.289062 0 11.160156-11.734375 32-40 32-14.535156 0-25.265625-7.855469-36.632812-16.167969-10.625-7.785156-21.613282-15.832031-35.367188-15.832031-9.382812.507812-18.410156 3.78125-25.9375 9.40625-11.382812 7.082031-20.375 12.671875-41.949219-.261719-11.660156-6.792969-22.308593-15.1875-31.632812-24.9375 1.496093-1.304687 2.992187-2.613281 4.511719-3.871093 2.152343-1.777344 4.304687-3.550782 6.496093-5.222657 2.632813-2 5.3125-3.882812 8-5.738281 2.207031-1.519531 4.414063-3.0625 6.664063-4.488281 2.777344-1.75 5.601562-3.359375 8.441406-4.957031 2.253906-1.273438 4.496094-2.585938 6.773438-3.753907 2.9375-1.503906 5.921874-2.832031 8.898437-4.167969 2.277344-1.023437 4.535156-2.105468 6.839844-3.023437 3.09375-1.242187 6.246093-2.28125 9.382812-3.34375 2.273438-.800781 4.511719-1.601563 6.800781-2.289063 3.320313-.976562 6.6875-1.726562 10.054688-2.511718 2.175781-.503906 4.328125-1.121094 6.527344-1.542969 3.746094-.730469 7.554687-1.191406 11.351562-1.679687 1.855469-.234376 3.699219-.601563 5.601563-.800782 5.65625-.519531 11.390625-.816406 17.175781-.816406 5.015625 0 10.015625.230469 14.984375.65625zm-150.144531 58.34375c10.304687 10.894531 22.101562 20.273438 35.039062 27.855469 29.953125 17.976562 45.855469 8.082031 58.632813.128906 5.046875-3.941406 11.113281-6.363281 17.488281-6.984375 8.519531 0 16.585938 5.894531 25.921875 12.734375 12.335937 9.035156 26.308594 19.265625 46.078125 19.265625 36.535156 0 56-27.871094 56-48 0-5.929688 7.777344-11.566406 16.96875-18.03125 13.75 11.609375 26.101562 24.78125 36.800781 39.253906-19.722656 13.519532-29.769531 25.21875-29.769531 34.777344.90625 9.09375 4.40625 17.738281 10.089844 24.894531 5.773437 8.992188 9.117187 14.800781 6.75 19.53125-13.175782 26.359375 9.785156 37.832031 19.609375 42.742188 12.042969 4.511719 24.867187 6.578125 37.71875 6.078125 1.601562 0 3.199219-.054688 4.800781-.101563.335938 3.609375.800781 7.199219.910156 10.855469h-415.71875c.507813-11.449219 1.875-22.84375 4.097656-34.089844 14.460938-5.597656 26.726563-6.023437 28.582032-2.335937 10.214844 20.425781 38.023437 20.425781 47.160156 20.425781 10.648438 0 23.910156-17.527344 26.03125-30.617188 2.316406-11.125-4.503906-22.109374-15.503906-24.964843-11.703125-3.914063-12.566406-8.800781-14.28125-18.539063-.808594-6.039062-2.523438-11.925781-5.085938-17.453125-3.617187-7.203125-12.65625-14.488281-27.390625-22.066406 8.554688-12.675781 18.289063-24.515625 29.070313-35.359375zm-63.894532 110.65625c1.171876-4.222656 2.460938-8.429688 3.863282-12.617188.296875-.871093.558594-1.757812.863281-2.632812 1.648437-4.75 3.457031-9.453125 5.382813-14.125.464843-1.113281.953124-2.21875 1.425781-3.328125 1.742187-4.066406 3.589843-8.085937 5.535156-12.066406.382813-.796875.738281-1.597657 1.128906-2.34375 2.253907-4.496094 4.664063-8.902344 7.199219-13.246094.273438-.464844.558594-.929687.800781-1.402344 17.054688 8.578125 20.894531 14.074219 21.695313 15.679688 1.855468 4.160156 3.082031 8.566406 3.648437 13.082031.613281 14.683594 10.753907 27.242188 24.984375 30.929688 4.800782 1.597656 4.863282 3.839843 4.910156 5.175781-1.039062 7.648437-5.078124 14.570312-11.230468 19.238281-7.425782 0-26.398438-.457031-32-11.59375-4.425782-7.785156-13.046875-12.207031-21.953125-11.269531-5.683594.101562-11.332031.945312-16.800781 2.511719.160156-.664063.355468-1.328126.546874-1.992188zm7.269532 110.34375h8c3.648437 63.847656 50.625 119.695312 119.785156 141.992188v8.40625c-73.007812-22.597657-124-82.582032-127.785156-150.398438zm255.199218 125.214844c-1.140624-3.113282-4.097656-5.195313-7.414062-5.214844h-112c-3.328125.011719-6.296875 2.09375-7.441406 5.214844-60.046875-21.023438-100.558594-69.734375-104.191406-125.214844h335.265624c-3.59375 55.480469-44.144531 104.191406-104.191406 125.214844zm-15.414062 42.785156h-96v-32h96zm16-17.601562v-8.398438c69.160156-22.304688 116.136719-78.152344 119.777344-142h8c-3.777344 67.816406-54.769532 127.800781-127.777344 150.398438zm160-174.398438c0 4.417969-3.582031 8-8 8h-432c-4.417969 0-8-3.582031-8-8v-8c0-4.417969 3.582031-8 8-8h432c4.417969 0 8 3.582031 8 8zm0 0"/><path d="m187.574219 191.199219c4.195312-2.085938 7.203125.359375 17.089843 13.800781 4.128907 5.90625 8.703126 11.484375 13.679688 16.695312 8.304688 8.304688 24.921875 11.519532 41.855469 11.519532 21.25 0 43-5.0625 49.457031-11.519532 1.601562-1.597656 3.902344-3.535156 6.511719-5.757812 11.742187-10.015625 27.832031-23.679688 27.832031-39.9375-1.46875-11.652344-8.1875-21.996094-18.242188-28.070312-10.054687-6.074219-22.335937-7.210938-33.332031-3.089844-7.304687 3.664062-27.546875 5.136718-82.480469-8.601563-.125-.03125-.25-.058593-.378906-.078125-4.375-.886718-43.199218-8.304687-61.140625.679688-5.289062 2.597656-8.683593 7.929687-8.800781 13.816406-.027344 5.03125 1.222656 9.984375 3.632812 14.398438 8.085938 16.089843 28.804688 33.839843 44.316407 26.144531zm-32-40c9.800781-4.910157 36.195312-2.222657 50.671875.65625 49.84375 12.441406 78.609375 14.695312 93.328125 7.34375 6.003906-1.65625 12.421875-.800781 17.78125 2.367187 5.359375 3.167969 9.203125 8.378906 10.644531 14.433594 0 8.847656-13.886719 20.65625-22.183594 27.703125-3 2.554687-5.601562 4.800781-7.382812 6.554687-6.898438 5.652344-56.480469 12.390626-68.800782.085938-4.375-4.644531-8.398437-9.609375-12.03125-14.855469-7.089843-9.648437-15.554687-21.160156-27.34375-21.160156-3.417968.0625-6.769531.921875-9.792968 2.511719-1.601563.800781-6.480469-.550782-12.5625-5.910156-6.410156-4.824219-10.804688-11.851563-12.328125-19.730469zm0 0"/></svg>